<svg width="158" height="75" viewBox="0 0 158 75" fill="none" xmlns="http://www.w3.org/2000/svg">
<path d="M112.887 40.3426C124.044 40.3426 133.089 31.3116 133.089 20.1713C133.089 9.031 124.044 0 112.887 0C101.73 0 92.6857 9.031 92.6857 20.1713C92.6857 31.3116 101.73 40.3426 112.887 40.3426Z" fill="#40BCF4"/>
<path d="M78.6057 40.3426C89.7628 40.3426 98.8074 31.3116 98.8074 20.1713C98.8074 9.031 89.7628 0 78.6057 0C67.4487 0 58.4041 9.031 58.4041 20.1713C58.4041 31.3116 67.4487 40.3426 78.6057 40.3426Z" fill="#00E054"/>
<path d="M44.3241 40.3426C55.4812 40.3426 64.5258 31.3116 64.5258 20.1713C64.5258 9.031 55.4812 0 44.3241 0C33.167 0 24.1224 9.031 24.1224 20.1713C24.1224 31.3116 33.167 40.3426 44.3241 40.3426Z" fill="#FF8000"/>
<path fill-rule="evenodd" clip-rule="evenodd" d="M61.4649 30.8514C59.5252 27.7542 58.4041 24.0935 58.4041 20.1713C58.4041 16.249 59.5252 12.5883 61.4649 9.49109C63.4046 12.5883 64.5258 16.249 64.5258 20.1713C64.5258 24.0935 63.4046 27.7542 61.4649 30.8514Z" fill="white"/>
<path fill-rule="evenodd" clip-rule="evenodd" d="M95.7465 9.49109C97.6863 12.5883 98.8074 16.249 98.8074 20.1713C98.8074 24.0935 97.6863 27.7542 95.7465 30.8514C93.8068 27.7542 92.6857 24.0935 92.6857 20.1713C92.6857 16.249 93.8068 12.5883 95.7465 9.49109Z" fill="white"/>
<path fill-rule="evenodd" clip-rule="evenodd" d="M44.991 57.5287C45.6222 57.5287 46.0525 57.4709 46.626 57.3549C47.6875 57.2103 48.0889 56.747 48.2611 55.328C48.347 54.633 48.4043 54.0247 48.4333 53.3297H52.7358V57.5287H56.6944V62.1911H52.7358V66.216C52.7358 69.1117 53.1662 69.4305 55.6329 69.4305H56.6944V74.3242H54.0551C49.0355 74.3242 47.8021 72.5 47.8021 67.2587V62.1911H46.4072H40.8729V66.216C40.8729 69.1117 41.3029 69.4305 43.7696 69.4305H44.8311V74.3242H42.1919C37.1722 74.3242 35.9392 72.5 35.9392 67.2587V62.1911H33.1281V57.8182C33.7589 57.8182 34.1892 57.7604 34.7628 57.6444C35.8243 57.4998 36.2259 57.0365 36.3978 55.6175C36.4841 54.9225 36.5414 54.0247 36.5697 53.3297H40.8729V57.5287H44.991ZM0 53.5614H5.3927V69.141H14.0265V74.3242H0V53.5614ZM23.9497 74.7586C18.1843 74.7586 15.4881 71.5155 15.4881 66.3319V65.8397C15.4881 60.4537 18.8441 57.1814 24.0357 57.1814C29.9163 57.1814 32.4116 61.0327 32.4116 65.5791V67.4614H20.68C20.9378 69.4883 22.0855 70.5888 24.0933 70.5888C25.5561 70.5888 26.3595 69.9516 26.7608 68.9963H32.2971C31.3791 72.5289 28.7975 74.7586 23.9497 74.7586ZM20.68 64.1601H27.2488C27.0189 62.2778 26.0441 61.1773 24.0933 61.1773C22.1428 61.1773 21.0241 62.1911 20.68 64.1601ZM66.4174 74.7586C60.6519 74.7586 57.9554 71.5155 57.9554 66.3319V65.8397C57.9554 60.4537 61.3114 57.1814 66.5033 57.1814C72.3836 57.1814 74.8789 61.0327 74.8789 65.5791V67.4614H63.1473C63.4057 69.4883 64.5528 70.5888 66.5606 70.5888C68.0237 70.5888 68.8268 69.9516 69.2284 68.9963H74.7644C73.8464 72.5289 71.2648 74.7586 66.4174 74.7586ZM63.1473 64.1601H69.716C69.4866 62.2778 68.5113 61.1773 66.5606 61.1773C64.6101 61.1773 63.4917 62.1911 63.1473 64.1601ZM77.0294 74.3242V57.5287H81.2174L81.9345 60.9746C82.4797 58.3687 84.1717 57.2971 87.155 57.2971H88.1016V62.828H86.1515C83.1102 62.828 82.3648 63.8996 82.3648 66.8821V74.3242H77.0294ZM94.9277 71.5156L94.5257 74.3243H89.965V52.0269H95.1282V60.2218C96.0175 58.3106 97.6812 57.1815 100.004 57.1815C103.733 57.2101 106.487 59.7874 106.487 65.4632V65.9844C106.487 71.6891 103.991 74.7584 99.8898 74.7584C97.3654 74.7584 95.7307 73.4843 94.9277 71.5156ZM101.296 65.9555V65.55C101.296 62.8859 100.033 61.554 98.2261 61.554C96.3329 61.554 95.0423 63.0308 95.0423 65.4921V65.8687C95.0423 68.7934 96.3043 70.1545 98.1978 70.1545C100.12 70.1545 101.296 68.9094 101.296 65.9555ZM108.092 66.3321V65.8106C108.092 60.1058 111.592 57.1815 116.496 57.1815C121.487 57.1815 124.872 60.1929 124.872 65.8106V66.3321C124.872 71.9208 121.545 74.7584 116.468 74.7584C111.075 74.7584 108.092 71.9208 108.092 66.3321ZM119.681 66.2739V65.8106C119.681 63.0597 118.533 61.6408 116.525 61.6408C114.574 61.6408 113.284 63.0019 113.284 65.8106V66.2739C113.284 68.8512 114.574 70.2123 116.496 70.2123C118.418 70.2123 119.681 68.9094 119.681 66.2739ZM133.189 69.5754L130.149 74.3241H124.01L130.149 65.5791L124.584 57.5287H130.493L133.218 61.7856L135.943 57.5287H141.823L136.287 65.5212L142.196 74.3241H136.23L133.189 69.5754ZM153.067 71.3997C152.235 73.3687 150.571 74.6431 148.018 74.6431C144.002 74.6431 141.478 71.7181 141.478 65.9555V65.4629C141.478 59.8163 144.232 57.2101 148.047 57.2101C150.456 57.2101 152.034 58.2239 152.866 59.9324V52.0269H158V74.3243H153.554L153.067 71.3997ZM152.923 65.9266V65.55C152.923 63.0019 151.69 61.5541 149.826 61.5541C147.875 61.5541 146.728 62.9148 146.728 65.55V65.9266C146.728 68.9383 147.961 70.1545 149.739 70.1545C151.661 70.1545 152.923 68.7645 152.923 65.9266Z" fill="white"/>
</svg>
