<svg width="5" height="10" viewBox="0 0 5 10" fill="none" xmlns="http://www.w3.org/2000/svg">
<path d="M4.99976 7.99609L2.98022 9.34961C2.87538 9.4207 2.75142 9.45803 2.62476 9.45605C2.49806 9.45408 2.37481 9.41323 2.27222 9.33887C2.16969 9.26451 2.09279 9.15978 2.05151 9.04004C2.01035 8.92035 2.00681 8.7906 2.04175 8.66895L2.71655 6.27734C2.71967 6.26542 2.71943 6.25291 2.71558 6.24121C2.71163 6.22936 2.70391 6.21866 2.69409 6.21094L0.733154 4.66895C0.630064 4.59205 0.553551 4.48482 0.514404 4.3623C0.475269 4.23972 0.474907 4.10782 0.514404 3.98535C0.553922 3.86284 0.631672 3.75631 0.735107 3.67969C0.838504 3.60312 0.962913 3.56072 1.09155 3.55859L3.59155 3.46387C3.60384 3.46302 3.61588 3.45856 3.62573 3.45117C3.63555 3.44378 3.64297 3.43341 3.64722 3.42188L4.50854 1.08008C4.55196 0.961595 4.63073 0.859446 4.73413 0.787109C4.81357 0.731575 4.90462 0.695312 4.99976 0.681641V7.99609Z" fill="#EC2626"/>
</svg>
