<svg width="14" height="12" viewBox="0 0 14 12" fill="none" xmlns="http://www.w3.org/2000/svg">
<path d="M2.1875 9.0625H0.4375C0.321468 9.0625 0.210188 9.10859 0.128141 9.19064C0.0460936 9.27269 0 9.38397 0 9.5L0 11.25C0 11.366 0.0460936 11.4773 0.128141 11.5594C0.210188 11.6414 0.321468 11.6875 0.4375 11.6875H2.1875C2.30353 11.6875 2.41481 11.6414 2.49686 11.5594C2.57891 11.4773 2.625 11.366 2.625 11.25V9.5C2.625 9.38397 2.57891 9.27269 2.49686 9.19064C2.41481 9.10859 2.30353 9.0625 2.1875 9.0625ZM2.1875 0.3125H0.4375C0.321468 0.3125 0.210188 0.358594 0.128141 0.440641C0.0460936 0.522688 0 0.633968 0 0.75L0 2.5C0 2.61603 0.0460936 2.72731 0.128141 2.80936C0.210188 2.89141 0.321468 2.9375 0.4375 2.9375H2.1875C2.30353 2.9375 2.41481 2.89141 2.49686 2.80936C2.57891 2.72731 2.625 2.61603 2.625 2.5V0.75C2.625 0.633968 2.57891 0.522688 2.49686 0.440641C2.41481 0.358594 2.30353 0.3125 2.1875 0.3125ZM2.1875 4.6875H0.4375C0.321468 4.6875 0.210188 4.73359 0.128141 4.81564C0.0460936 4.89769 0 5.00897 0 5.125L0 6.875C0 6.99103 0.0460936 7.10231 0.128141 7.18436C0.210188 7.26641 0.321468 7.3125 0.4375 7.3125H2.1875C2.30353 7.3125 2.41481 7.26641 2.49686 7.18436C2.57891 7.10231 2.625 6.99103 2.625 6.875V5.125C2.625 5.00897 2.57891 4.89769 2.49686 4.81564C2.41481 4.73359 2.30353 4.6875 2.1875 4.6875ZM13.5625 9.5H4.8125C4.69647 9.5 4.58519 9.54609 4.50314 9.62814C4.42109 9.71019 4.375 9.82147 4.375 9.9375V10.8125C4.375 10.9285 4.42109 11.0398 4.50314 11.1219C4.58519 11.2039 4.69647 11.25 4.8125 11.25H13.5625C13.6785 11.25 13.7898 11.2039 13.8719 11.1219C13.9539 11.0398 14 10.9285 14 10.8125V9.9375C14 9.82147 13.9539 9.71019 13.8719 9.62814C13.7898 9.54609 13.6785 9.5 13.5625 9.5ZM13.5625 0.75H4.8125C4.69647 0.75 4.58519 0.796094 4.50314 0.878141C4.42109 0.960188 4.375 1.07147 4.375 1.1875V2.0625C4.375 2.17853 4.42109 2.28981 4.50314 2.37186C4.58519 2.45391 4.69647 2.5 4.8125 2.5H13.5625C13.6785 2.5 13.7898 2.45391 13.8719 2.37186C13.9539 2.28981 14 2.17853 14 2.0625V1.1875C14 1.07147 13.9539 0.960188 13.8719 0.878141C13.7898 0.796094 13.6785 0.75 13.5625 0.75ZM13.5625 5.125H4.8125C4.69647 5.125 4.58519 5.17109 4.50314 5.25314C4.42109 5.33519 4.375 5.44647 4.375 5.5625V6.4375C4.375 6.55353 4.42109 6.66481 4.50314 6.74686C4.58519 6.82891 4.69647 6.875 4.8125 6.875H13.5625C13.6785 6.875 13.7898 6.82891 13.8719 6.74686C13.9539 6.66481 14 6.55353 14 6.4375V5.5625C14 5.44647 13.9539 5.33519 13.8719 5.25314C13.7898 5.17109 13.6785 5.125 13.5625 5.125Z" fill="white" fill-opacity="0.5"/>
</svg>
