<svg width="21" height="22" viewBox="0 0 21 22" fill="none" xmlns="http://www.w3.org/2000/svg">
<g filter="url(#filter0_d_5_132)">
<path fill-rule="evenodd" clip-rule="evenodd" d="M5.75 4.93182C5.75 2.5595 7.67314 0.636364 10.0455 0.636364C12.4178 0.636364 14.3409 2.5595 14.3409 4.93182V6.37017C14.2885 6.36584 14.2354 6.36364 14.1818 6.36364H5.90909C5.85552 6.36364 5.80246 6.36584 5.75 6.37017V4.93182ZM5.11364 6.53674V4.93182C5.11364 2.20805 7.32169 0 10.0455 0C12.7692 0 14.9773 2.20805 14.9773 4.93182V6.53674C15.6345 6.83838 16.0909 7.50225 16.0909 8.27273V12.0909C16.0909 13.1453 15.2362 14 14.1818 14H5.90909C4.85473 14 4 13.1453 4 12.0909V8.27273C4 7.50225 4.45642 6.83838 5.11364 6.53674ZM15.4545 8.27273C15.4545 7.56982 14.8847 7 14.1818 7H5.90909C5.20618 7 4.63636 7.56982 4.63636 8.27273V12.0909C4.63636 12.7938 5.20618 13.3636 5.90909 13.3636H14.1818C14.8847 13.3636 15.4545 12.7938 15.4545 12.0909V8.27273ZM10.3636 10.8182V9.54546C10.3636 9.36973 10.2212 9.22727 10.0455 9.22727C9.86972 9.22727 9.72727 9.36973 9.72727 9.54546V10.8182C9.72727 10.9939 9.86972 11.1364 10.0455 11.1364C10.2212 11.1364 10.3636 10.9939 10.3636 10.8182ZM11 9.54546C11 9.01827 10.5726 8.59091 10.0455 8.59091C9.51827 8.59091 9.0909 9.01827 9.0909 9.54546V10.8182C9.0909 11.3454 9.51827 11.7727 10.0455 11.7727C10.5726 11.7727 11 11.3454 11 10.8182V9.54546Z" fill="white" fill-opacity="0.5" shape-rendering="crispEdges"/>
</g>
<defs>
<filter id="filter0_d_5_132" x="0" y="0" width="20.0909" height="22" filterUnits="userSpaceOnUse" color-interpolation-filters="sRGB">
<feFlood flood-opacity="0" result="BackgroundImageFix"/>
<feColorMatrix in="SourceAlpha" type="matrix" values="0 0 0 0 0 0 0 0 0 0 0 0 0 0 0 0 0 0 127 0" result="hardAlpha"/>
<feOffset dy="4"/>
<feGaussianBlur stdDeviation="2"/>
<feComposite in2="hardAlpha" operator="out"/>
<feColorMatrix type="matrix" values="0 0 0 0 0 0 0 0 0 0 0 0 0 0 0 0 0 0 0.25 0"/>
<feBlend mode="normal" in2="BackgroundImageFix" result="effect1_dropShadow_5_132"/>
<feBlend mode="normal" in="SourceGraphic" in2="effect1_dropShadow_5_132" result="shape"/>
</filter>
</defs>
</svg>
