<svg width="5" height="5" viewBox="0 0 5 5" fill="none" xmlns="http://www.w3.org/2000/svg">
<g clip-path="url(#clip0_9_162)">
<path d="M4.72223 2.3305C4.77384 2.29204 4.81213 2.2384 4.83173 2.17708C4.85132 2.11577 4.85123 2.04986 4.83147 1.9886C4.81172 1.92733 4.77328 1.87379 4.72156 1.83548C4.66984 1.79716 4.60742 1.77599 4.54306 1.77494L3.29306 1.72772C3.28691 1.7273 3.28102 1.7251 3.27609 1.72141C3.27116 1.71771 3.26741 1.71267 3.26528 1.70689L2.83334 0.54022C2.81163 0.480865 2.77222 0.429611 2.72042 0.3934C2.66862 0.357189 2.60695 0.337769 2.54375 0.337769C2.48055 0.337769 2.41888 0.357189 2.36709 0.3934C2.31529 0.429611 2.27587 0.480865 2.25417 0.54022L1.82361 1.71105C1.82149 1.71683 1.81773 1.72188 1.8128 1.72557C1.80787 1.72927 1.80198 1.73146 1.79584 1.73189L0.545837 1.77911C0.481476 1.78016 0.419059 1.80133 0.367336 1.83964C0.315613 1.87796 0.277178 1.9315 0.257421 1.99276C0.237664 2.05403 0.237576 2.11993 0.257168 2.18125C0.27676 2.24256 0.31505 2.29621 0.36667 2.33466L1.34723 3.1055C1.35213 3.10936 1.3558 3.11458 1.35778 3.1205C1.35975 3.12642 1.35995 3.1328 1.35834 3.13883L1.02084 4.33466C1.00335 4.39556 1.00504 4.46036 1.02569 4.52026C1.04634 4.58016 1.08493 4.63224 1.13623 4.66942C1.18753 4.70661 1.24904 4.72709 1.31239 4.72807C1.37573 4.72906 1.43785 4.71051 1.49028 4.67494L2.52639 3.9805C2.5315 3.97697 2.53755 3.97509 2.54375 3.97509C2.54996 3.97509 2.55601 3.97697 2.56111 3.9805L3.59723 4.67494C3.64895 4.71172 3.71084 4.73149 3.77431 4.73149C3.83778 4.73149 3.89967 4.71172 3.95139 4.67494C4.0027 4.63811 4.04134 4.58628 4.06198 4.52659C4.08263 4.46689 4.08426 4.40227 4.06667 4.34161L3.72639 3.14161C3.72459 3.13558 3.72469 3.12915 3.72668 3.12319C3.72867 3.11722 3.73245 3.11201 3.7375 3.10828L4.72223 2.3305Z" fill="#EC2626"/>
</g>
<defs>
<clipPath id="clip0_9_162">
<rect width="5" height="5" fill="white"/>
</clipPath>
</defs>
</svg>
